<svg width="197" height="197" viewBox="0 0 197 197" fill="none" xmlns="http://www.w3.org/2000/svg">
<g opacity="0.6">
<path opacity="0.6" d="M65.8511 35.1755L60.8494 24.1655L67.8539 20.9697L68.598 22.6223L63.476 24.9644L64.9646 28.2477L69.7911 26.0589L70.5243 27.6895L65.6978 29.8785L67.7335 34.3438L65.8511 35.1755Z" fill="#424928"/>
<path opacity="0.6" d="M79.1177 30.2398C75.9766 31.1263 73.0435 29.2219 72.0585 25.7525C71.0735 22.2832 72.5729 19.1093 75.7249 18.2228C78.8769 17.3363 81.8209 19.2187 82.8059 22.71C83.7909 26.2013 82.2697 29.3533 79.1177 30.2398ZM76.2174 19.9849C74.1707 20.5648 73.3499 22.7209 74.0285 25.1834C74.7071 27.6459 76.5567 29.0578 78.6032 28.4668C80.6499 27.8758 81.4926 25.7197 80.7922 23.2572C80.0918 20.7947 78.264 19.4048 76.2174 19.9849Z" fill="#424928"/>
<path opacity="0.6" d="M84.5022 16.3514L86.5379 16.0996L87.8075 26.267L93.5751 25.5447L93.8049 27.3614L86.0016 28.3245L84.5022 16.3514Z" fill="#424928"/>
<path opacity="0.6" d="M95.6112 15.2129H97.6578L97.4936 25.4678L103.294 25.5663V27.3941L95.4142 27.3612L95.6112 15.2129Z" fill="#424928"/>
<path opacity="0.6" d="M109.214 28.3682C105.93 27.8757 104.092 24.9207 104.639 21.3527C105.186 17.7848 107.846 15.5303 111.085 16.0118C114.325 16.4934 116.218 19.4484 115.682 23.0272C115.146 26.6061 112.442 28.8496 109.214 28.3682ZM110.812 17.8287C108.71 17.5112 107.069 19.131 106.686 21.6591C106.302 24.1873 107.386 26.2668 109.444 26.5513C111.501 26.8359 113.209 25.249 113.591 22.7208C113.975 20.1927 112.913 18.146 110.812 17.8287Z" fill="#424928"/>
<path opacity="0.6" d="M126.848 20.2143L126.06 29.3748L131.061 21.7138L132.922 22.3704L125.983 32.7567L124.199 32.1219L124.911 23.2132L119.854 30.6007L118.092 29.9878L119.187 17.5439L121.08 18.2115L120.161 27.3611L125.283 19.7L126.848 20.2143Z" fill="#424928"/>
<path opacity="0.6" d="M140.898 41.589C138.272 39.6409 138.009 36.1167 140.164 33.2493C142.321 30.3819 145.746 29.6267 148.372 31.5857C150.999 33.5448 151.284 37.058 149.117 39.9364C146.95 42.8147 143.513 43.5699 140.898 41.589ZM147.268 33.0523C145.571 31.7827 143.349 32.4394 141.795 34.497C140.242 36.5546 140.263 38.8747 141.97 40.1224C143.677 41.37 145.899 40.7572 147.443 38.6996C148.986 36.642 148.975 34.3547 147.268 33.0742V33.0523Z" fill="#424928"/>
<path opacity="0.6" d="M149.939 42.388L155.182 37.3535L156.594 38.831L151.515 43.7123C149.83 45.3211 149.732 46.7877 150.99 48.09C152.249 49.3924 153.705 49.3596 155.369 47.7508L160.458 42.8695L161.87 44.347L156.616 49.3924C154.23 51.6908 151.647 51.45 149.644 49.3924C147.641 47.3348 147.532 44.6973 149.939 42.388Z" fill="#424928"/>
<path opacity="0.6" d="M159.582 53.1465L155.564 55.9701L154.394 54.2956L164.244 47.335L166.925 51.1547C168.359 53.2012 168.26 55.2478 166.323 56.6268C165.986 56.8977 165.597 57.0991 165.181 57.2194C164.766 57.3397 164.33 57.3764 163.899 57.3276C163.469 57.2787 163.052 57.1453 162.673 56.9349C162.295 56.7245 161.962 56.4412 161.694 56.1015L159.636 61.8364L158.301 59.9321L160.38 54.3613L159.582 53.1465ZM160.982 52.1615L162.471 54.2738C162.605 54.495 162.784 54.6861 162.995 54.8349C163.207 54.9836 163.447 55.0869 163.7 55.1381C163.954 55.1894 164.215 55.1875 164.469 55.1326C164.721 55.0777 164.96 54.9709 165.169 54.8191C165.379 54.6673 165.555 54.4737 165.685 54.2506C165.816 54.0274 165.899 53.7796 165.929 53.5226C165.959 53.2657 165.937 53.0053 165.861 52.7578C165.786 52.5103 165.66 52.2812 165.492 52.0849L164.014 49.9836L160.982 52.1615Z" fill="#424928"/>
<path opacity="0.6" d="M167.657 70.2196C167.418 70.3003 167.199 70.4297 167.013 70.5994C166.826 70.7692 166.676 70.9756 166.574 71.2059C166.47 71.4362 166.416 71.6852 166.415 71.9374C166.412 72.1896 166.464 72.4394 166.562 72.6712C167.055 73.9626 168.019 74.3128 169.627 73.7656L177.048 70.9967L177.758 72.9119L170.338 75.6808C167.646 76.6877 165.698 75.6808 164.867 73.4044C164.643 72.9359 164.519 72.4265 164.502 71.9078C164.486 71.3892 164.575 70.8727 164.768 70.3907C164.96 69.9087 165.25 69.4717 165.619 69.107C165.988 68.7423 166.428 68.4578 166.913 68.2715L167.657 70.2196Z" fill="#424928"/>
<path opacity="0.6" d="M167.919 83.8129C167.252 80.6172 169.353 77.8155 172.877 77.0712C176.402 76.3269 179.443 78.0453 180.133 81.241C180.822 84.4368 178.733 87.2495 175.187 88.0047C171.641 88.7599 168.598 87.0088 167.919 83.8129ZM178.349 81.6241C177.912 79.5446 175.811 78.5815 173.303 79.1069C170.798 79.6322 169.277 81.3615 169.714 83.4846C170.151 85.6079 172.253 86.5491 174.76 86.0238C177.266 85.4985 178.787 83.7035 178.393 81.6131L178.349 81.6241Z" fill="#424928"/>
<path opacity="0.6" d="M174.19 90.3577L181.446 90.0513L181.545 92.0978L174.486 92.4042C172.166 92.5027 171.126 93.4988 171.202 95.3374C171.28 97.1761 172.407 98.0954 174.727 97.9969L181.775 97.6904L181.863 99.737L174.574 100.054C171.29 100.186 169.495 98.3142 169.375 95.414C169.255 92.5138 170.863 90.4999 174.19 90.3577Z" fill="#424928"/>
<path opacity="0.6" d="M174.324 104.804L169.442 104.267L169.662 102.232L181.7 103.545L181.197 108.186C180.923 110.67 179.489 112.148 177.148 111.885C176.714 111.865 176.29 111.76 175.899 111.576C175.507 111.392 175.157 111.132 174.865 110.812C174.575 110.492 174.35 110.117 174.204 109.709C174.059 109.302 173.994 108.87 174.017 108.437L168.677 111.381L168.927 109.072L174.17 106.249L174.324 104.804ZM176.019 104.99L175.746 107.551C175.593 108.908 176.239 109.74 177.355 109.871C178.471 110.002 179.282 109.302 179.424 107.956L179.709 105.384L176.019 104.99Z" fill="#424928"/>
<path opacity="0.6" d="M165.852 121.987L166.268 120.466L176.391 116.821L167.899 114.49L168.413 112.597L180.08 115.782L179.576 117.642L169.935 121.057L178.033 123.246L177.519 125.15L165.852 121.987Z" fill="#424928"/>
<path opacity="0.6" d="M172.857 136.16L171.205 135.427L173.602 130.053L170.735 128.751L168.545 133.621L166.904 132.899L169.093 128.017L165.929 126.606L163.532 131.99L161.858 131.246L165.065 124.034L176.107 128.948L172.857 136.16Z" fill="#424928"/>
<path opacity="0.6" d="M167.154 145.682L165.995 147.52L162.208 139.913L158.125 137.331L159.221 135.612L163.302 138.196L171.784 138.393L170.591 140.275L164.298 140.089L167.154 145.682Z" fill="#424928"/>
<path opacity="0.6" d="M129.319 162.732L134.014 173.875L126.889 176.863L126.189 175.199L131.42 173.009L130.03 169.726L125.149 171.784L124.449 170.132L129.341 168.074L127.436 163.553L129.319 162.732Z" fill="#424928"/>
<path opacity="0.6" d="M115.924 167.286C119.087 166.488 121.977 168.479 122.852 171.981C123.728 175.484 122.152 178.603 118.978 179.402C115.804 180.2 112.915 178.23 112.028 174.717C111.142 171.204 112.729 168.085 115.924 167.286ZM118.529 177.629C120.598 177.103 121.484 174.969 120.849 172.484C120.215 170.001 118.431 168.544 116.373 169.07C114.316 169.595 113.407 171.729 114.031 174.214C114.655 176.699 116.472 178.144 118.529 177.629Z" fill="#424928"/>
<path opacity="0.6" d="M110.155 181L108.119 181.197L107.134 170.986L101.356 171.544L101.18 169.716L108.995 168.96L110.155 181Z" fill="#424928"/>
<path opacity="0.6" d="M99.0576 181.809L97.0111 181.733L97.3831 171.478L91.5717 171.269L91.6373 169.431L99.4954 169.726L99.0576 181.809Z" fill="#424928"/>
<path opacity="0.6" d="M85.7832 168.304C89.0009 168.895 90.8067 171.893 90.161 175.451C89.5152 179.007 86.7791 181.185 83.5943 180.594C80.4095 180.003 78.5599 177.027 79.2166 173.458C79.8732 169.89 82.5656 167.723 85.7832 168.304ZM83.8898 178.8C85.9802 179.171 87.6656 177.595 88.1253 175.078C88.585 172.561 87.5562 170.493 85.4658 170.109C83.3754 169.726 81.6571 171.302 81.2084 173.83C80.7597 176.358 81.7994 178.394 83.8898 178.8Z" fill="#424928"/>
<path opacity="0.6" d="M67.9434 175.954L69.0378 166.816L63.8064 174.356L61.9678 173.645L69.202 163.467L70.975 164.134L70.0119 173.032L75.2762 165.786L77.0274 166.455L75.517 178.866L73.6455 178.154L74.7399 169.048L69.399 176.545L67.9434 175.954Z" fill="#424928"/>
<path opacity="0.6" d="M54.5018 154.153C57.0628 156.188 57.2269 159.679 54.9943 162.515C52.7616 165.349 49.3141 165.973 46.7422 163.947C44.1703 161.924 43.9842 158.421 46.2388 155.575C48.4933 152.73 51.9299 152.127 54.5018 154.153ZM47.9351 162.515C49.6096 163.828 51.8423 163.237 53.4074 161.222C54.9725 159.209 55.0599 156.911 53.4074 155.587C51.7548 154.262 49.4893 154.853 47.9351 156.867C46.381 158.881 46.2169 161.189 47.8805 162.515H47.9351Z" fill="#424928"/>
<path opacity="0.6" d="M45.4859 153.124L40.1012 158.016L38.7222 156.506L43.9536 151.766C45.6718 150.202 45.8142 148.746 44.5994 147.389C43.3845 146.032 41.907 146.043 40.2215 147.608L35.0229 152.347L33.6439 150.826L39.0395 145.934C41.4911 143.745 44.063 144.007 46.0112 146.152C47.9593 148.298 47.9484 150.892 45.4859 153.124Z" fill="#424928"/>
<path opacity="0.6" d="M36.1172 142.092L40.2103 139.388L41.3049 141.095L31.2797 147.75L28.7078 143.853C27.3288 141.764 27.4929 139.728 29.4629 138.382C29.8082 138.121 30.2015 137.932 30.6204 137.824C31.0391 137.716 31.4751 137.691 31.9032 137.753C32.3314 137.813 32.7432 137.959 33.1152 138.18C33.4871 138.401 33.8118 138.692 34.0705 139.039L36.2594 133.369L37.5399 135.306L35.2964 140.779L36.1172 142.092ZM34.6834 143.033L33.2607 140.845C33.1463 140.602 32.9808 140.385 32.7755 140.212C32.5704 140.038 32.3302 139.911 32.0713 139.839C31.8126 139.766 31.5411 139.751 31.2757 139.793C31.0102 139.835 30.7568 139.933 30.5329 140.082C30.3088 140.23 30.1195 140.424 29.9776 140.653C29.8358 140.881 29.7448 141.138 29.7108 141.404C29.6767 141.671 29.7005 141.941 29.7805 142.197C29.8605 142.455 29.9948 142.691 30.1744 142.891L31.5971 145.08L34.6834 143.033Z" fill="#424928"/>
<path opacity="0.6" d="M28.5549 124.767C28.7901 124.684 29.0061 124.555 29.1897 124.386C29.3735 124.218 29.5209 124.014 29.6232 123.787C29.7257 123.559 29.7807 123.314 29.7852 123.065C29.7896 122.815 29.7434 122.568 29.6494 122.337C29.2115 121.035 28.2484 120.652 26.6177 121.243L19.1536 123.782L18.4969 121.834L25.9938 119.294C28.719 118.375 30.6453 119.382 31.4661 121.735C31.6768 122.21 31.7871 122.723 31.7899 123.242C31.7927 123.762 31.6881 124.276 31.4824 124.753C31.2769 125.23 30.9748 125.659 30.5952 126.014C30.2158 126.368 29.7671 126.641 29.2772 126.813L28.5549 124.767Z" fill="#424928"/>
<path opacity="0.6" d="M28.6851 111.174C29.2651 114.392 27.0763 117.128 23.5303 117.741C19.9843 118.353 16.9636 116.569 16.3945 113.363C15.8254 110.156 17.9815 107.398 21.5493 106.796C25.1172 106.194 28.105 107.956 28.6851 111.174ZM18.2003 113.067C18.5725 115.158 20.641 116.186 23.1691 115.738C25.6973 115.289 27.2623 113.549 26.8902 111.502C26.5181 109.456 24.4386 108.35 21.8886 108.81C19.3385 109.27 17.8282 110.966 18.2003 113.067Z" fill="#424928"/>
<path opacity="0.6" d="M22.6216 104.519L15.3217 104.629V102.582L22.3699 102.473C24.701 102.473 25.7627 101.433 25.7299 99.6163C25.6971 97.7996 24.6354 96.8474 22.2824 96.8802L15.2341 96.9898V94.9431L22.5231 94.8228C25.8065 94.8228 27.5466 96.6943 27.6014 99.5945C27.656 102.495 25.9487 104.465 22.6216 104.519Z" fill="#424928"/>
<path opacity="0.6" d="M22.8968 90.0182L27.7561 90.6968L27.4715 92.7214L15.4984 91.0579L16.1331 86.4613C16.4834 83.9877 17.9498 82.5541 20.292 82.8824C20.7277 82.9139 21.1526 83.0321 21.5419 83.2301C21.9313 83.428 22.2774 83.7016 22.5596 84.0349C22.842 84.3682 23.055 84.7545 23.1862 85.171C23.3173 85.5876 23.364 86.0263 23.3236 86.4613L28.7958 83.6704L28.4565 85.914L23.0938 88.5735L22.8968 90.0182ZM21.2003 89.7446L21.5506 87.1836C21.6294 86.9268 21.6509 86.656 21.6138 86.3901C21.5767 86.1241 21.4818 85.8696 21.3357 85.6442C21.1897 85.419 20.9961 85.2284 20.7685 85.0859C20.5409 84.9434 20.2848 84.8526 20.0183 84.8196C18.9239 84.6663 18.0703 85.3339 17.8842 86.6801L17.5121 89.2739L21.2003 89.7446Z" fill="#424928"/>
<path opacity="0.6" d="M31.8488 73.0981L31.3892 74.6085L21.1561 77.9684L29.5505 80.5294L28.9814 82.4228L17.435 78.8987L18.0041 77.049L27.7227 73.9081L19.7005 71.4674L20.2806 69.585L31.8488 73.0981Z" fill="#424928"/>
<path opacity="0.6" d="M25.2479 58.728L26.8787 59.516L24.3286 64.824L27.207 66.203L29.5491 61.3984L31.1689 62.1645L28.8596 66.9801L31.9787 68.4795L34.5288 63.1714L36.1814 63.9703L32.723 71.139L21.888 65.8529L25.2479 58.728Z" fill="#424928"/>
<path opacity="0.6" d="M31.2232 49.3812L32.438 47.5864L36.0058 55.2475L40.0115 58.0055L38.9171 59.6909L34.9223 56.9877L26.4513 56.5608L27.6552 54.7222L33.9264 55.0505L31.2232 49.3812Z" fill="#424928"/>
<path opacity="0.57" d="M51.9979 42.41C49.5901 44.8725 43.7786 44.8725 43.7786 44.8725C43.7786 44.8725 43.7786 39.061 46.1535 36.6423C48.5284 34.2236 50.9035 34.4534 52.5232 36.106C54.1431 37.7587 54.4166 39.9913 51.9979 42.41Z" fill="#8E9373"/>
<path opacity="0.6" d="M54.0766 36.1167C51.9375 37.1081 50.0061 38.4972 48.3856 40.21" stroke="#424928" stroke-width="0.416667"/>
<path opacity="0.6" d="M51.9304 42.3442C50.5126 43.5077 48.7853 44.2306 46.9616 44.4236C46.2375 44.5525 45.5067 44.6402 44.7727 44.6863H44.0832H43.9299V44.5332C43.9299 44.369 43.9299 44.1392 43.9299 43.8437C43.9629 43.0884 44.0397 42.3356 44.1598 41.5891C44.3577 39.7685 45.0758 38.0435 46.2283 36.6203C47.0987 35.6189 48.3218 34.9917 49.6429 34.8691C50.171 34.871 50.6929 34.9827 51.1755 35.1976C51.6578 35.4125 52.0902 35.7256 52.4448 36.1168C52.8282 36.4764 53.1317 36.9127 53.3354 37.3973C53.5389 37.8819 53.6382 38.404 53.6268 38.9296C53.5184 40.2428 52.9114 41.4647 51.9304 42.3442Z" stroke="#424928" stroke-width="0.416667"/>
<path opacity="0.6" d="M50.4642 40.8118C50.4642 40.8118 51.1646 38.8966 50.4642 38.1961C49.7637 37.4957 48.2753 38.1961 48.2753 38.1961" stroke="#424928" stroke-width="0.416667"/>
<path opacity="0.57" d="M146.271 153.572C148.405 150.902 154.184 150.289 154.184 150.289C154.184 150.289 154.851 156.057 152.717 158.727C150.583 161.399 148.241 161.387 146.456 159.964C144.673 158.542 144.137 156.244 146.271 153.572Z" fill="#8E9373"/>
<path opacity="0.6" d="M144.905 160.106C146.923 158.889 148.69 157.3 150.115 155.423" stroke="#424928" stroke-width="0.416667"/>
<path opacity="0.6" d="M146.349 153.638C147.627 152.338 149.254 151.433 151.033 151.034C151.753 150.827 152.483 150.659 153.221 150.531L153.9 150.432H154.054C154.049 150.482 154.049 150.533 154.054 150.584C154.054 150.738 154.054 150.978 154.054 151.263C154.092 152.019 154.092 152.774 154.054 153.529C154.063 155.365 153.538 157.163 152.544 158.706C151.79 159.795 150.645 160.551 149.347 160.818C148.294 160.899 147.25 160.578 146.424 159.921C145.597 159.263 145.05 158.316 144.893 157.272C144.884 156.6 145.008 155.934 145.257 155.31C145.507 154.686 145.878 154.117 146.349 153.638Z" stroke="#424928" stroke-width="0.416667"/>
<path opacity="0.6" d="M147.969 155.006C147.969 155.006 147.499 156.976 148.265 157.59C149.032 158.202 150.454 157.348 150.454 157.348" stroke="#424928" stroke-width="0.416667"/>
</g>
</svg>
